<?xml version="1.0" encoding="UTF-8" standalone="no"?>
<!-- Created with Inkscape (http://www.inkscape.org/) -->

<svg
   width="21.212135mm"
   height="20.575317mm"
   viewBox="0 0 21.212135 20.575317"
   version="1.1"
   id="svg5"
   xmlns:inkscape="http://www.inkscape.org/namespaces/inkscape"
   xmlns:sodipodi="http://sodipodi.sourceforge.net/DTD/sodipodi-0.dtd"
   xmlns="http://www.w3.org/2000/svg"
   xmlns:svg="http://www.w3.org/2000/svg">
  <sodipodi:namedview
     id="namedview7"
     pagecolor="#ffffff"
     bordercolor="#000000"
     borderopacity="0.25"
     inkscape:showpageshadow="2"
     inkscape:pageopacity="0.0"
     inkscape:pagecheckerboard="0"
     inkscape:deskcolor="#d1d1d1"
     inkscape:document-units="mm"
     showgrid="false" />
  <defs
     id="defs2" />
  <g
     inkscape:label="Layer 1"
     inkscape:groupmode="layer"
     id="layer1"
     transform="translate(-16.445275,-154.06747)">
    <path
       style="fill:none;stroke:#ffffff;stroke-width:0.79375;stroke-linecap:round;paint-order:markers fill stroke"
       d="m 20.856466,157.56365 4.949935,9.56617 5.283638,3.67073"
       id="path238" />
    <path
       style="fill:#dbdee3;stroke:#000055;stroke-width:0.79375;stroke-linecap:round;paint-order:markers fill stroke"
       d="m 30.025733,173.04594 c 1.00987,-0.51676 2.016419,-1.08721 2.85743,-1.84852 0.972894,-0.88068 1.912249,-1.88257 2.455897,-3.07696 1.458426,-3.20416 1.897749,-10.38949 1.897749,-10.38949 0,0 -3.006662,-0.15308 -4.441222,-0.56419 -2.025662,-0.58051 -5.736256,-2.64582 -5.736256,-2.64582 0,0 -3.722301,2.04413 -5.751237,2.61309 -1.436879,0.40293 -4.444364,0.53888 -4.444364,0.53888 0,0 0.398375,7.18772 1.838521,10.40013 0.536834,1.19747 1.470465,2.2047 2.438325,3.09091 0.83666,0.76609 1.839942,1.34226 2.846852,1.86477 0.959667,0.49798 3.015771,1.19537 3.015771,1.19537 0,0 2.060045,-0.68566 3.022534,-1.17817 z"
       id="path458"
       sodipodi:nodetypes="aaacacscsssca"
       inkscape:export-filename="shieldico.svg"
       inkscape:export-xdpi="96"
       inkscape:export-ydpi="96" />
  </g>
</svg>
